<svg width="290" height="50" viewBox="0 0 290 50" fill="none" xmlns="http://www.w3.org/2000/svg">
<path d="M53.2891 36.9375C53.0026 37.9792 52.7422 38.7734 52.5078 39.3203C52.2995 39.8411 51.974 40.388 51.5312 40.9609C51.1927 40.9089 50.9583 40.9479 50.8281 41.0781C50.6979 41.2083 50.5547 41.3255 50.3984 41.4297C50.1641 41.4818 49.9948 41.4818 49.8906 41.4297C49.7865 41.3776 49.6953 41.3125 49.6172 41.2344C49.5391 41.1823 49.4349 41.1172 49.3047 41.0391C49.2005 40.987 49.0312 40.9609 48.7969 40.9609C48.7448 40.7526 48.6797 40.5573 48.6016 40.375C48.5495 40.1927 48.3802 40.1276 48.0938 40.1797C48.1458 39.9714 48.1589 39.8021 48.1328 39.6719C48.1068 39.5156 48.0677 39.3854 48.0156 39.2812C47.9896 39.151 47.9635 39.0339 47.9375 38.9297C47.9115 38.7995 47.9245 38.6432 47.9766 38.4609C47.8464 38.4609 47.7422 38.3698 47.6641 38.1875C47.5859 38.0052 47.4948 37.8229 47.3906 37.6406C47.4688 37.1719 47.5469 36.7292 47.625 36.3125C47.7031 35.8958 47.7943 35.5052 47.8984 35.1406C48.0286 34.776 48.1328 34.4115 48.2109 34.0469C48.2891 33.6823 48.25 33.3047 48.0938 32.9141C48.1979 32.9922 48.276 32.9792 48.3281 32.875C48.3802 32.7448 48.4193 32.5885 48.4453 32.4062C48.4714 32.1979 48.4844 32.0026 48.4844 31.8203C48.4844 31.612 48.4714 31.4427 48.4453 31.3125C48.7057 30.6354 48.9141 29.9453 49.0703 29.2422C49.2526 28.513 49.4089 27.7969 49.5391 27.0938C49.6953 26.3906 49.8516 25.7005 50.0078 25.0234C50.1641 24.3464 50.3724 23.7214 50.6328 23.1484C50.9193 23.0964 51.2318 23.1354 51.5703 23.2656C51.9349 23.3698 52.1562 23.513 52.2344 23.6953C52.9115 23.1745 53.5104 22.5495 54.0312 21.8203C54.5521 21.0651 55.0859 20.3359 55.6328 19.6328C56.1797 18.9297 56.7786 18.3047 57.4297 17.7578C58.1068 17.2109 58.9531 16.8854 59.9688 16.7812C60.4896 17.1719 61.0625 17.5755 61.6875 17.9922C62.3385 18.3828 62.8724 18.9036 63.2891 19.5547C63.4974 19.6589 63.6667 19.776 63.7969 19.9062C63.9531 20.0104 64.1354 20.1276 64.3438 20.2578V20.7266C64.6562 21.013 64.9036 21.3516 65.0859 21.7422C65.2943 22.1068 65.4766 22.5104 65.6328 22.9531C65.7891 23.3698 65.9453 23.7995 66.1016 24.2422C66.2578 24.6589 66.4401 25.0625 66.6484 25.4531C66.5964 25.5833 66.5703 25.7005 66.5703 25.8047C66.5703 25.8828 66.5833 25.974 66.6094 26.0781C66.6615 26.1823 66.7005 26.2865 66.7266 26.3906C66.7526 26.4948 66.7526 26.638 66.7266 26.8203C66.6484 27.9661 66.2708 28.8906 65.5938 29.5938C64.9427 30.2969 64.1484 30.8828 63.2109 31.3516C62.2734 31.7943 61.2708 32.1719 60.2031 32.4844C59.1354 32.7969 58.1719 33.1354 57.3125 33.5C57.3125 33.6042 57.3516 33.6562 57.4297 33.6562C57.5339 33.6562 57.5729 33.7214 57.5469 33.8516C58.1719 34.2422 58.6667 34.5547 59.0312 34.7891C59.3958 35.0234 59.7344 35.2188 60.0469 35.375C60.3854 35.5312 60.737 35.6745 61.1016 35.8047C61.4922 35.9089 62.026 36.0391 62.7031 36.1953C63.3802 36.3516 63.901 36.4818 64.2656 36.5859C64.6562 36.6641 65.0078 36.7422 65.3203 36.8203C65.6328 36.8724 65.9453 36.9245 66.2578 36.9766C66.5964 37.0026 67.0651 37.0417 67.6641 37.0938C67.8984 37.3281 68.0938 37.6146 68.25 37.9531C68.4323 38.2656 68.5495 38.5911 68.6016 38.9297C68.6536 39.2422 68.6667 39.5547 68.6406 39.8672C68.6146 40.1536 68.5234 40.388 68.3672 40.5703C68.3932 40.6484 68.4453 40.6875 68.5234 40.6875C68.6276 40.6615 68.7318 40.6615 68.8359 40.6875C68.6797 40.7917 68.5495 40.9219 68.4453 41.0781C68.3411 41.2344 68.237 41.3906 68.1328 41.5469C68.0286 41.7031 67.9115 41.8333 67.7812 41.9375C67.651 42.0677 67.4688 42.1458 67.2344 42.1719C66.4271 42.4844 65.4115 42.4974 64.1875 42.2109C62.9635 41.9505 61.4141 41.4557 59.5391 40.7266C58.6016 40.362 57.8333 40.0495 57.2344 39.7891C56.6615 39.5026 56.1536 39.2292 55.7109 38.9688C55.2943 38.6823 54.9036 38.3828 54.5391 38.0703C54.2005 37.7578 53.7839 37.3802 53.2891 36.9375ZM58.875 23.5391C58.5885 23.9557 58.263 24.3333 57.8984 24.6719C57.5599 25.0104 57.2214 25.362 56.8828 25.7266C56.5703 26.0651 56.2839 26.4557 56.0234 26.8984C55.763 27.3151 55.5807 27.8099 55.4766 28.3828C56.388 28.2786 57.3385 28.0312 58.3281 27.6406C59.3177 27.224 60.2552 26.8333 61.1406 26.4688C61.0365 25.6615 60.75 25.0104 60.2812 24.5156C59.8385 24.0208 59.3698 23.6953 58.875 23.5391ZM89.3047 37.7188C89.1484 38.1615 88.9141 38.6172 88.6016 39.0859C88.3151 39.5286 87.9635 39.9323 87.5469 40.2969C87.1562 40.6354 86.7135 40.9219 86.2188 41.1562C85.724 41.3906 85.2031 41.5208 84.6562 41.5469C84.3177 41.4688 84.0833 41.3776 83.9531 41.2734C83.849 41.1953 83.7318 41.1172 83.6016 41.0391C83.5234 40.987 83.4453 40.9479 83.3672 40.9219C83.3151 40.8698 83.263 40.8307 83.2109 40.8047L82.7422 40.6094L82.8984 40.1016C82.9505 39.8932 82.9375 39.737 82.8594 39.6328C82.7812 39.5026 82.625 39.3333 82.3906 39.125C82.3125 39.0469 82.2344 38.9688 82.1562 38.8906C82.0781 38.8125 82.013 38.7344 81.9609 38.6562L81.2969 37.9141L82.3516 37.6406C83.0026 37.4583 83.4323 37.224 83.6406 36.9375C83.875 36.651 83.9661 36.1693 83.9141 35.4922C83.3932 35.388 82.9505 35.375 82.5859 35.4531C82.2474 35.5312 81.8958 35.6224 81.5312 35.7266C81.0625 35.8568 80.5807 35.974 80.0859 36.0781C79.6172 36.1562 79.0964 36.1953 78.5234 36.1953C78.3151 36.1953 78.1198 36.1953 77.9375 36.1953C77.7552 36.1693 77.5599 36.1432 77.3516 36.1172L76.9609 36.0391C76.9089 35.7526 76.8568 35.5964 76.8047 35.5703C76.7526 35.5182 76.7005 35.4661 76.6484 35.4141C76.5182 35.2839 76.375 35.1146 76.2188 34.9062C76.0885 34.6719 76.0625 34.3854 76.1406 34.0469C76.0104 33.8125 75.9323 33.5781 75.9062 33.3438C75.75 33.6562 75.6328 33.9818 75.5547 34.3203L75.3984 34.7109L75.0078 34.7891C74.9557 34.8151 74.9167 34.8802 74.8906 34.9844C74.8646 35.0625 74.8516 35.1276 74.8516 35.1797L74.6562 35.8438C74.6042 35.8958 74.5521 35.9479 74.5 36C74.4479 36.026 74.3958 36.0651 74.3438 36.1172C74.2917 36.3516 74.2266 36.5859 74.1484 36.8203C74.0703 37.0547 73.9922 37.276 73.9141 37.4844C73.7839 37.8229 73.6667 38.1615 73.5625 38.5C73.4844 38.8125 73.4583 39.125 73.4844 39.4375L73.3281 39.8672C73.1979 40.0234 73.0547 40.1536 72.8984 40.2578C72.7422 40.3359 72.5859 40.4141 72.4297 40.4922C72.3776 40.5443 72.2995 40.5964 72.1953 40.6484C72.1172 40.6745 72.0521 40.7005 72 40.7266L71.8828 41.1562L71.4141 41.2344C71.1276 41.2865 70.9193 41.3255 70.7891 41.3516C70.6849 41.3776 70.5547 41.3906 70.3984 41.3906L70.0078 41.3516C69.7214 41.1172 69.5 40.9349 69.3438 40.8047C69.1875 40.6484 69.0052 40.5052 68.7969 40.375C68.5625 40.0625 68.4323 39.8281 68.4062 39.6719C68.3802 39.5156 68.3542 39.3724 68.3281 39.2422C68.276 39.0859 68.25 38.9557 68.25 38.8516C68.224 38.7474 68.1849 38.6693 68.1328 38.6172L67.625 38.1484L68.0547 37.7969L68.0938 37.1328C68.6146 35.8047 69.1615 34.5286 69.7344 33.3047C70.3333 32.0807 70.9453 30.8307 71.5703 29.5547C71.7786 29.138 71.974 28.7214 72.1562 28.3047C72.3646 27.888 72.5729 27.4714 72.7812 27.0547C72.7552 26.9766 72.7422 26.8854 72.7422 26.7812C72.7422 26.6771 72.7682 26.5599 72.8203 26.4297C73.1068 25.987 73.3411 25.5964 73.5234 25.2578C73.7057 24.8932 73.888 24.5286 74.0703 24.1641C74.2786 23.7214 74.487 23.2917 74.6953 22.875C74.9297 22.4583 75.2161 22.0286 75.5547 21.5859L76.1797 21.3125C76.2578 21.2865 76.349 21.2604 76.4531 21.2344C76.5573 21.1823 76.6745 21.1562 76.8047 21.1562L77.3906 21.2344C78.1198 20.8958 78.7578 20.4271 79.3047 19.8281C79.8516 19.2031 80.4115 18.4609 80.9844 17.6016L81.375 17.0547L81.8828 17.3672C82.013 17.4453 82.1953 17.5234 82.4297 17.6016C82.6641 17.6536 82.9115 17.7188 83.1719 17.7969C83.6406 17.901 84.0833 18.0182 84.5 18.1484C84.9167 18.2786 85.2552 18.474 85.5156 18.7344C85.6719 19.151 85.763 19.4635 85.7891 19.6719C85.8151 19.8802 85.8542 20.0885 85.9062 20.2969C85.9844 20.7396 86.0495 21.1823 86.1016 21.625C86.1797 22.0677 86.2318 22.5625 86.2578 23.1094C86.388 23.5521 86.4922 23.9948 86.5703 24.4375C86.6745 24.8542 86.7656 25.2839 86.8438 25.7266C86.974 26.3516 87.1042 26.9635 87.2344 27.5625C87.3646 28.1354 87.5339 28.6823 87.7422 29.2031C87.9505 29.2031 88.0807 29.2161 88.1328 29.2422C88.263 29.1901 88.3932 29.151 88.5234 29.125C88.6797 29.099 88.849 29.0729 89.0312 29.0469L89.4609 29.0078L89.6172 29.3984C89.6432 29.5286 89.7734 29.6589 90.0078 29.7891C90.3464 29.8151 90.5938 29.8932 90.75 30.0234C90.9062 30.1276 91.0495 30.2448 91.1797 30.375C91.2839 30.4792 91.388 30.5573 91.4922 30.6094L92.0781 30.8438L91.7656 31.4297C91.5052 31.8984 91.1276 32.3542 90.6328 32.7969C90.1641 33.2135 89.6302 33.5651 89.0312 33.8516C89.0573 34.0078 89.0703 34.1641 89.0703 34.3203C89.0964 34.4505 89.1354 34.5938 89.1875 34.75C89.2656 35.1927 89.3307 35.6484 89.3828 36.1172C89.4349 36.5859 89.4349 37.0677 89.3828 37.5625L89.3047 37.7188ZM78.0156 30.9609C78.7969 30.9089 79.5 30.8568 80.125 30.8047C80.776 30.7266 81.4922 30.6094 82.2734 30.4531C82.0911 29.6719 81.8958 28.8646 81.6875 28.0312C81.4792 27.1719 81.2578 26.3255 81.0234 25.4922L80.7891 25.8828C80.2682 26.4297 79.7604 27.0417 79.2656 27.7188C78.7969 28.3958 78.3932 29.0339 78.0547 29.6328C77.8984 29.8672 77.7422 30.1016 77.5859 30.3359C77.4297 30.5703 77.2865 30.8047 77.1562 31.0391C77.3125 31.013 77.4557 31 77.5859 31C77.7422 31 77.8854 30.987 78.0156 30.9609ZM99.8906 33.8906C99.6562 33.9427 99.487 34.0859 99.3828 34.3203C99.2786 34.5286 99.1745 34.75 99.0703 34.9844C98.9922 35.2188 98.901 35.4401 98.7969 35.6484C98.7188 35.8307 98.5885 35.9219 98.4062 35.9219C98.3802 36.1302 98.3021 36.3125 98.1719 36.4688C98.0677 36.625 97.9635 36.7943 97.8594 36.9766C97.7552 37.1328 97.6771 37.3151 97.625 37.5234C97.5729 37.7057 97.599 37.9271 97.7031 38.1875C97.4948 38.3438 97.3646 38.5651 97.3125 38.8516C97.2604 39.138 97.1953 39.4115 97.1172 39.6719C97.0651 39.9323 96.9609 40.1536 96.8047 40.3359C96.6484 40.5182 96.362 40.5964 95.9453 40.5703C95.8672 40.6745 95.8542 40.7396 95.9062 40.7656C95.9583 40.7917 95.9974 40.8828 96.0234 41.0391C95.737 40.987 95.5156 41 95.3594 41.0781C95.2292 41.1823 95.0599 41.2474 94.8516 41.2734C94.3568 41.1172 93.9401 40.8438 93.6016 40.4531C93.2891 40.0625 93.0026 39.6328 92.7422 39.1641C92.5078 38.6693 92.2865 38.1745 92.0781 37.6797C91.8958 37.1849 91.7135 36.7552 91.5312 36.3906C91.6094 36.1042 91.6224 35.8307 91.5703 35.5703C91.5182 35.2839 91.4271 35.0495 91.2969 34.8672C92.5729 32.1589 93.9661 29.2682 95.4766 26.1953C96.987 23.1224 98.4193 20.0885 99.7734 17.0938C100.372 17.3281 100.958 17.6016 101.531 17.9141C102.13 18.2005 102.664 18.5391 103.133 18.9297C103.628 19.3203 104.044 19.776 104.383 20.2969C104.721 20.7917 104.943 21.3516 105.047 21.9766C104.995 22.1328 104.93 22.1979 104.852 22.1719C104.799 22.1198 104.747 22.1328 104.695 22.2109C104.799 22.3411 104.852 22.4323 104.852 22.4844C104.878 22.5365 104.878 22.5885 104.852 22.6406C104.852 22.6927 104.852 22.7708 104.852 22.875C104.852 22.9531 104.891 23.0703 104.969 23.2266C104.865 23.2005 104.786 23.2135 104.734 23.2656C104.708 23.3177 104.63 23.3177 104.5 23.2656C104.604 23.5521 104.63 23.7865 104.578 23.9688C104.552 24.151 104.5 24.3203 104.422 24.4766C104.344 24.6068 104.279 24.763 104.227 24.9453C104.174 25.1016 104.188 25.3099 104.266 25.5703C104.188 25.5703 104.122 25.5964 104.07 25.6484C104.044 25.6745 104.018 25.7135 103.992 25.7656C103.966 25.7917 103.927 25.8307 103.875 25.8828C103.849 25.9089 103.797 25.9089 103.719 25.8828C103.797 26.4557 103.823 27.0286 103.797 27.6016C103.771 28.1745 103.745 28.7604 103.719 29.3594C103.719 29.9323 103.732 30.5443 103.758 31.1953C103.784 31.8203 103.875 32.4714 104.031 33.1484C104.969 32.6016 105.711 31.8984 106.258 31.0391C106.831 30.1797 107.286 29.2161 107.625 28.1484C107.99 27.0807 108.263 25.9349 108.445 24.7109C108.628 23.487 108.823 22.237 109.031 20.9609C109.266 20.7266 109.448 20.4401 109.578 20.1016C109.708 19.763 109.826 19.4115 109.93 19.0469C110.034 18.6562 110.138 18.2786 110.242 17.9141C110.346 17.5234 110.477 17.1719 110.633 16.8594C111.023 16.9115 111.349 17.0417 111.609 17.25C111.896 17.4323 112.156 17.6406 112.391 17.875C112.625 18.0833 112.872 18.2917 113.133 18.5C113.393 18.6823 113.719 18.7995 114.109 18.8516C114.422 19.2943 114.708 19.724 114.969 20.1406C115.229 20.5573 115.398 21 115.477 21.4688C115.346 21.6771 115.242 21.9115 115.164 22.1719C115.112 22.4323 115.047 22.6927 114.969 22.9531C114.891 23.2135 114.786 23.4609 114.656 23.6953C114.526 23.9036 114.344 24.0859 114.109 24.2422C114.031 24.9193 113.927 25.5443 113.797 26.1172C113.693 26.6641 113.576 27.2109 113.445 27.7578C113.341 28.3047 113.25 28.8776 113.172 29.4766C113.094 30.0495 113.068 30.6875 113.094 31.3906C112.885 31.9896 112.664 32.6276 112.43 33.3047C112.195 33.9818 112.013 34.5938 111.883 35.1406C111.466 35.4792 111.141 35.8828 110.906 36.3516C110.672 36.8203 110.424 37.2891 110.164 37.7578C110.06 37.862 109.995 37.888 109.969 37.8359C109.943 37.7839 109.852 37.7448 109.695 37.7188C109.721 37.8229 109.721 37.901 109.695 37.9531C109.669 38.0052 109.63 38.0573 109.578 38.1094C109.552 38.1354 109.526 38.1875 109.5 38.2656C109.5 38.3438 109.526 38.4479 109.578 38.5781C109.214 38.7344 108.888 38.9557 108.602 39.2422C108.315 39.5286 108.003 39.7891 107.664 40.0234C107.352 40.2578 106.961 40.4141 106.492 40.4922C106.049 40.5703 105.464 40.4792 104.734 40.2188C103.667 39.4375 102.716 38.5391 101.883 37.5234C101.076 36.5078 100.411 35.2969 99.8906 33.8906ZM142.156 33.9688C141.531 35.0885 140.711 35.9609 139.695 36.5859C138.68 37.1849 137.56 37.6927 136.336 38.1094C135.112 38.5 133.823 38.8516 132.469 39.1641C131.141 39.4766 129.852 39.8802 128.602 40.375C128.237 40.375 127.911 40.388 127.625 40.4141C127.365 40.4401 127.104 40.4792 126.844 40.5312C126.609 40.5573 126.375 40.5964 126.141 40.6484C125.906 40.6745 125.646 40.7005 125.359 40.7266C125.255 40.7005 125.19 40.7266 125.164 40.8047C125.138 40.8568 125.099 40.9089 125.047 40.9609C124.604 41.0391 124.201 41.0781 123.836 41.0781C123.497 41.0781 123.211 41.0781 122.977 41.0781C122.664 41.0781 122.339 41.1172 122 41.1953C121.688 41.2995 121.401 41.3385 121.141 41.3125C119.188 41.2083 117.651 40.5182 116.531 39.2422C115.438 37.9401 114.826 36.1432 114.695 33.8516C114.721 33.7214 114.695 33.6432 114.617 33.6172C114.565 33.5911 114.513 33.5521 114.461 33.5C114.461 33.2396 114.487 33.0182 114.539 32.8359C114.617 32.6536 114.63 32.4193 114.578 32.1328C115.255 30.7005 116.023 29.3724 116.883 28.1484C117.742 26.8984 118.771 25.8047 119.969 24.8672C120.151 24.7109 120.307 24.5547 120.438 24.3984C120.568 24.2422 120.685 24.0859 120.789 23.9297C120.919 23.7734 121.062 23.6432 121.219 23.5391C121.375 23.4089 121.57 23.3177 121.805 23.2656C122.352 22.6406 123.003 22.0677 123.758 21.5469C124.513 21.026 125.307 20.5312 126.141 20.0625C126.974 19.5677 127.794 19.0859 128.602 18.6172C129.435 18.1224 130.19 17.5755 130.867 16.9766C131.154 17.1068 131.362 17.1458 131.492 17.0938C131.622 17.0417 131.766 17.0417 131.922 17.0938C132.104 17.4844 132.352 17.7578 132.664 17.9141C133.003 18.0703 133.328 18.2396 133.641 18.4219C133.979 18.5781 134.292 18.7734 134.578 19.0078C134.865 19.2422 135.086 19.5547 135.242 19.9453C135.086 19.9453 135.008 20.0104 135.008 20.1406C135.034 20.2448 135.073 20.362 135.125 20.4922C135.177 20.5964 135.19 20.7135 135.164 20.8438C135.164 20.9479 135.073 21 134.891 21C134.917 21.1302 134.995 21.2083 135.125 21.2344C135.281 21.2344 135.359 21.2995 135.359 21.4297C135.359 21.5599 135.32 21.6641 135.242 21.7422C135.19 21.8203 135.19 21.9505 135.242 22.1328C134.721 22.4714 134.135 22.7969 133.484 23.1094C132.859 23.4219 132.195 23.7604 131.492 24.125C130.815 24.4635 130.099 24.8411 129.344 25.2578C128.615 25.6484 127.898 26.1042 127.195 26.625C126.492 27.1458 125.776 27.7318 125.047 28.3828C124.318 29.0078 123.615 29.6719 122.938 30.375C122.26 31.0781 121.622 31.8073 121.023 32.5625C120.424 33.2917 119.917 34.0208 119.5 34.75C119.552 34.8802 119.604 34.9844 119.656 35.0625C119.734 35.1146 119.799 35.2057 119.852 35.3359C120.685 35.388 121.453 35.388 122.156 35.3359C122.885 35.2578 123.615 35.2969 124.344 35.4531C124.422 35.401 124.474 35.3229 124.5 35.2188C124.526 35.1146 124.591 35.0365 124.695 34.9844C126.18 34.8281 127.56 34.5938 128.836 34.2812C130.112 33.9427 131.414 33.5911 132.742 33.2266C132.534 33.1484 132.339 33.0833 132.156 33.0312C132 32.9531 131.844 32.888 131.688 32.8359C131.557 32.7057 131.557 32.6016 131.688 32.5234C131.844 32.4193 131.974 32.3151 132.078 32.2109C131.714 32.0026 131.414 31.7422 131.18 31.4297C130.971 31.1172 130.841 30.7005 130.789 30.1797C130.945 30.0495 131.023 29.8932 131.023 29.7109C131.023 29.5286 130.945 29.3854 130.789 29.2812C130.685 29.2552 130.62 29.2552 130.594 29.2812C130.568 29.3073 130.542 29.3464 130.516 29.3984C130.516 29.4505 130.503 29.5026 130.477 29.5547C130.451 29.5807 130.385 29.5677 130.281 29.5156C130.307 29.2812 130.359 29.0859 130.438 28.9297C130.542 28.7734 130.62 28.5911 130.672 28.3828L133.367 26.5859C133.654 26.7943 134.005 27.0286 134.422 27.2891C134.839 27.5234 135.268 27.7708 135.711 28.0312C136.18 28.2656 136.648 28.513 137.117 28.7734C137.612 29.0078 138.068 29.2422 138.484 29.4766C138.849 29.6328 139.174 29.8411 139.461 30.1016C139.747 30.362 140.021 30.6354 140.281 30.9219C140.542 31.1823 140.802 31.4427 141.062 31.7031C141.349 31.9635 141.674 32.1849 142.039 32.3672C141.987 32.7057 142 32.9792 142.078 33.1875C142.156 33.3958 142.182 33.6562 142.156 33.9688ZM162.352 19.0078C162.378 19.1901 162.378 19.3333 162.352 19.4375C162.352 19.5156 162.339 19.5938 162.312 19.6719C162.312 19.75 162.312 19.8411 162.312 19.9453C162.312 20.0234 162.339 20.1536 162.391 20.3359C161.844 21.2214 161.206 21.8333 160.477 22.1719C159.773 22.4844 159.005 22.7188 158.172 22.875C157.339 23.0052 156.479 23.1484 155.594 23.3047C154.734 23.4609 153.875 23.7995 153.016 24.3203C152.677 24.1901 152.365 24.1901 152.078 24.3203C151.818 24.4505 151.427 24.4896 150.906 24.4375C150.75 24.5938 150.555 24.7109 150.32 24.7891C150.086 24.8411 149.852 24.9062 149.617 24.9844C149.721 25.2188 149.76 25.4661 149.734 25.7266C149.734 25.9609 149.773 26.1562 149.852 26.3125C150.763 26.3906 151.766 26.3776 152.859 26.2734C153.979 26.1693 155.073 26.1042 156.141 26.0781C156.167 26.2083 156.154 26.2995 156.102 26.3516C156.049 26.3776 156.036 26.4427 156.062 26.5469C156.245 26.6771 156.427 26.8464 156.609 27.0547C156.792 27.237 156.974 27.4193 157.156 27.6016C157.339 27.7839 157.521 27.9401 157.703 28.0703C157.911 28.1745 158.146 28.2135 158.406 28.1875C158.51 28.3958 158.576 28.6302 158.602 28.8906C158.654 29.125 158.628 29.3724 158.523 29.6328C158.107 29.9193 157.69 30.2188 157.273 30.5312C156.857 30.8177 156.414 31.0781 155.945 31.3125C155.503 31.5469 155.021 31.7422 154.5 31.8984C154.005 32.0286 153.445 32.0807 152.82 32.0547C152.69 32.0547 152.586 32.0547 152.508 32.0547C152.456 32.0547 152.378 32.0156 152.273 31.9375C152.065 32.0677 151.766 32.1068 151.375 32.0547C151.01 32.0026 150.724 32.0417 150.516 32.1719C150.229 32.0417 149.878 31.9896 149.461 32.0156C149.07 32.0156 148.719 31.9635 148.406 31.8594C147.99 32.4062 147.612 32.9922 147.273 33.6172C146.935 34.2422 146.635 34.9062 146.375 35.6094C147.26 35.7396 147.99 35.7917 148.562 35.7656C149.161 35.7396 149.721 35.7005 150.242 35.6484C150.763 35.5703 151.297 35.5052 151.844 35.4531C152.391 35.375 153.081 35.349 153.914 35.375C154.435 35.0885 155.047 34.9062 155.75 34.8281C156.479 34.724 157.143 34.5677 157.742 34.3594C157.951 34.4375 158.133 34.5807 158.289 34.7891C158.445 34.9714 158.589 35.1536 158.719 35.3359C158.875 35.4922 159.031 35.6354 159.188 35.7656C159.344 35.8958 159.539 35.9479 159.773 35.9219C159.878 36.026 159.943 36.1562 159.969 36.3125C160.021 36.4427 160.06 36.5729 160.086 36.7031C160.112 36.8333 160.151 36.9505 160.203 37.0547C160.281 37.1328 160.398 37.1589 160.555 37.1328C160.164 37.9922 159.708 38.6562 159.188 39.125C158.693 39.5677 158.12 39.9062 157.469 40.1406C156.818 40.375 156.089 40.5573 155.281 40.6875C154.5 40.8177 153.628 40.974 152.664 41.1562C152.43 41.2083 152.234 41.1953 152.078 41.1172C151.922 41.0651 151.74 41.0391 151.531 41.0391C150.932 41.1693 150.216 41.2865 149.383 41.3906C148.549 41.4948 147.703 41.5339 146.844 41.5078C145.984 41.4818 145.164 41.3646 144.383 41.1562C143.602 40.974 142.964 40.6354 142.469 40.1406C142.26 39.9583 142.117 39.75 142.039 39.5156C141.987 39.2552 141.818 39.0599 141.531 38.9297C141.505 38.5911 141.453 38.2135 141.375 37.7969C141.297 37.3802 141.219 36.9505 141.141 36.5078C141.062 36.0391 140.997 35.5833 140.945 35.1406C140.919 34.6979 140.945 34.2943 141.023 33.9297C141.102 33.5391 141.258 33.1875 141.492 32.875C141.753 32.5625 141.844 32.224 141.766 31.8594C141.896 31.8333 141.974 31.7682 142 31.6641C142.026 31.5339 142.13 31.4818 142.312 31.5078C142.469 31.0391 142.638 30.5964 142.82 30.1797C143.003 29.763 143.185 29.3594 143.367 28.9688C143.576 28.5781 143.771 28.1875 143.953 27.7969C144.161 27.3802 144.357 26.9245 144.539 26.4297C144.174 26.0911 143.901 25.7266 143.719 25.3359C143.562 24.9193 143.445 24.5156 143.367 24.125C143.289 23.7083 143.224 23.2917 143.172 22.875C143.12 22.4323 143.029 21.9896 142.898 21.5469C143.159 21.1562 143.471 20.8438 143.836 20.6094C144.227 20.349 144.643 20.1406 145.086 19.9844C145.529 19.8281 146.01 19.6979 146.531 19.5938C147.052 19.4896 147.599 19.3724 148.172 19.2422C149.214 18.9036 150.138 18.6432 150.945 18.4609C151.779 18.2786 152.586 18.1354 153.367 18.0312C154.174 17.901 155.008 17.7839 155.867 17.6797C156.727 17.5755 157.703 17.4193 158.797 17.2109C159.031 17.4453 159.253 17.5625 159.461 17.5625C159.565 17.3281 159.682 17.263 159.812 17.3672C159.969 17.4453 160.034 17.3672 160.008 17.1328C160.268 17.5755 160.594 17.9531 160.984 18.2656C161.401 18.5521 161.857 18.7995 162.352 19.0078ZM183.289 37.3281C183.029 37.5365 182.872 37.8099 182.82 38.1484C182.768 38.4609 182.703 38.7734 182.625 39.0859C182.547 39.3984 182.404 39.6719 182.195 39.9062C182.013 40.1146 181.674 40.2057 181.18 40.1797C181.076 40.3099 181.049 40.388 181.102 40.4141C181.18 40.4401 181.245 40.5573 181.297 40.7656C180.932 40.7135 180.672 40.7396 180.516 40.8438C180.359 40.9479 180.164 41.026 179.93 41.0781C179.331 40.8958 178.823 40.5703 178.406 40.1016C178.016 39.6068 177.664 39.0729 177.352 38.5C177.065 37.9271 176.805 37.3411 176.57 36.7422C176.362 36.1432 176.141 35.6224 175.906 35.1797C175.906 35.0755 175.958 35.0365 176.062 35.0625C176.141 35.0625 176.219 35.0625 176.297 35.0625C176.167 34.8021 176.076 34.5156 176.023 34.2031C175.945 33.8646 175.815 33.5911 175.633 33.3828C176.388 31.7682 177.195 30.0885 178.055 28.3438C178.914 26.5729 179.773 24.7891 180.633 22.9922C181.518 21.1693 182.391 19.3464 183.25 17.5234C184.135 15.6745 184.982 13.8646 185.789 12.0938C186.518 12.3542 187.221 12.6667 187.898 13.0312C188.602 13.3698 189.24 13.7734 189.812 14.2422C190.385 14.7109 190.867 15.2578 191.258 15.8828C191.674 16.4818 191.948 17.1719 192.078 17.9531C192.026 18.1094 191.961 18.1615 191.883 18.1094C191.805 18.0573 191.74 18.0833 191.688 18.1875C191.818 18.3438 191.883 18.4609 191.883 18.5391C191.909 18.5911 191.909 18.6562 191.883 18.7344C191.857 18.7865 191.844 18.8646 191.844 18.9688C191.844 19.0729 191.909 19.2161 192.039 19.3984C191.909 19.3724 191.818 19.3984 191.766 19.4766C191.714 19.5286 191.622 19.5286 191.492 19.4766C191.622 19.8411 191.661 20.1276 191.609 20.3359C191.557 20.5443 191.479 20.7396 191.375 20.9219C191.271 21.0781 191.18 21.2604 191.102 21.4688C191.049 21.651 191.076 21.9115 191.18 22.25C191.076 22.25 190.997 22.276 190.945 22.3281C190.919 22.3542 190.893 22.3932 190.867 22.4453C190.841 22.4974 190.802 22.5495 190.75 22.6016C190.724 22.6276 190.659 22.6276 190.555 22.6016C190.633 23.2786 190.659 23.9688 190.633 24.6719C190.607 25.349 190.581 26.0521 190.555 26.7812C190.529 27.4844 190.529 28.2135 190.555 28.9688C190.581 29.724 190.685 30.5052 190.867 31.3125C191.987 30.6615 192.885 29.8151 193.562 28.7734C194.266 27.7318 194.812 26.5729 195.203 25.2969C195.62 24.0208 195.932 22.6536 196.141 21.1953C196.375 19.737 196.609 18.2526 196.844 16.7422C197.13 16.4557 197.352 16.1042 197.508 15.6875C197.69 15.2708 197.833 14.8411 197.938 14.3984C198.068 13.9557 198.185 13.513 198.289 13.0703C198.419 12.6016 198.589 12.1849 198.797 11.8203C199.266 11.8724 199.656 12.0156 199.969 12.25C200.307 12.4583 200.62 12.7057 200.906 12.9922C201.193 13.2526 201.492 13.5 201.805 13.7344C202.117 13.9688 202.508 14.125 202.977 14.2031C203.341 14.724 203.68 15.2318 203.992 15.7266C204.305 16.1953 204.513 16.7292 204.617 17.3281C204.461 17.5885 204.344 17.875 204.266 18.1875C204.188 18.5 204.096 18.8125 203.992 19.125C203.914 19.4375 203.797 19.724 203.641 19.9844C203.484 20.2448 203.263 20.4661 202.977 20.6484C202.898 21.4297 202.781 22.1589 202.625 22.8359C202.469 23.513 202.326 24.1771 202.195 24.8281C202.065 25.4792 201.948 26.1562 201.844 26.8594C201.74 27.5625 201.701 28.3307 201.727 29.1641C201.492 29.9193 201.232 30.7005 200.945 31.5078C200.659 32.2891 200.451 33.0182 200.32 33.6953C199.826 34.0859 199.435 34.5677 199.148 35.1406C198.862 35.7135 198.562 36.2865 198.25 36.8594C198.12 36.9635 198.042 36.9896 198.016 36.9375C197.99 36.8594 197.872 36.8073 197.664 36.7812C197.69 37.0156 197.638 37.1719 197.508 37.25C197.404 37.3021 197.417 37.4844 197.547 37.7969C197.104 38.0052 196.714 38.2786 196.375 38.6172C196.036 38.9557 195.659 39.2682 195.242 39.5547C194.852 39.8411 194.383 40.0365 193.836 40.1406C193.315 40.2188 192.625 40.1016 191.766 39.7891C190.49 38.8516 189.344 37.7708 188.328 36.5469C187.312 35.3229 186.505 33.8776 185.906 32.2109C185.646 32.2891 185.451 32.4583 185.32 32.7188C185.19 32.9792 185.073 33.2526 184.969 33.5391C184.865 33.8255 184.76 34.0859 184.656 34.3203C184.552 34.5547 184.396 34.6719 184.188 34.6719C184.135 34.9062 184.031 35.1276 183.875 35.3359C183.745 35.5182 183.615 35.7135 183.484 35.9219C183.354 36.1042 183.25 36.3125 183.172 36.5469C183.12 36.7812 183.159 37.0417 183.289 37.3281ZM226.375 29.2812C226.349 29.5938 226.375 29.8932 226.453 30.1797C226.531 30.4661 226.622 30.7526 226.727 31.0391C226.857 31.2995 226.974 31.5729 227.078 31.8594C227.182 32.1458 227.26 32.4323 227.312 32.7188C227.365 33.0833 227.365 33.487 227.312 33.9297C227.26 34.3464 227.169 34.763 227.039 35.1797C226.909 35.5703 226.74 35.9349 226.531 36.2734C226.323 36.5859 226.076 36.8203 225.789 36.9766C225.424 37.4453 224.982 37.8099 224.461 38.0703C223.94 38.3307 223.458 38.6432 223.016 39.0078C222.729 39.1901 222.404 39.3203 222.039 39.3984C221.701 39.4766 221.349 39.5547 220.984 39.6328C220.698 39.7891 220.359 39.9583 219.969 40.1406C219.578 40.2969 219.174 40.4531 218.758 40.6094C218.341 40.7396 217.924 40.8438 217.508 40.9219C217.091 40.974 216.727 40.987 216.414 40.9609C215.633 41.2474 214.865 41.4297 214.109 41.5078C213.38 41.612 212.521 41.5599 211.531 41.3516C210.594 41.4818 209.721 41.4427 208.914 41.2344C208.133 41.026 207.43 40.7005 206.805 40.2578C206.206 39.7891 205.672 39.2422 205.203 38.6172C204.76 37.9661 204.396 37.2891 204.109 36.5859C203.901 35.1016 203.953 33.7604 204.266 32.5625C204.578 31.3385 205.021 30.2188 205.594 29.2031C206.193 28.1615 206.87 27.2109 207.625 26.3516C208.38 25.4661 209.109 24.6068 209.812 23.7734C209.969 23.8255 210.086 23.8255 210.164 23.7734C210.268 23.6953 210.359 23.6042 210.438 23.5C210.516 23.3698 210.594 23.2526 210.672 23.1484C210.776 23.0443 210.893 22.9792 211.023 22.9531C211.206 22.5625 211.466 22.276 211.805 22.0938C212.169 21.8854 212.456 21.599 212.664 21.2344C212.898 21.1823 213.094 21.1042 213.25 21C213.406 20.8958 213.549 20.7786 213.68 20.6484C213.836 20.5182 213.992 20.401 214.148 20.2969C214.305 20.1667 214.487 20.0755 214.695 20.0234V19.5938C215.164 19.3854 215.503 19.151 215.711 18.8906C215.945 18.6042 216.219 18.2656 216.531 17.875C216.766 17.849 216.948 17.8359 217.078 17.8359C217.234 17.8359 217.456 17.8099 217.742 17.7578C217.951 17.3932 218.133 17.1198 218.289 16.9375C218.471 16.7552 218.732 16.5599 219.07 16.3516C219.383 16.5078 219.721 16.612 220.086 16.6641C220.477 16.7161 220.815 16.8854 221.102 17.1719C221.128 17.4323 221.206 17.6406 221.336 17.7969C221.466 17.9271 221.609 18.0573 221.766 18.1875C221.922 18.2917 222.065 18.4089 222.195 18.5391C222.352 18.6693 222.456 18.8516 222.508 19.0859C222.612 19.112 222.677 19.099 222.703 19.0469C222.755 18.9948 222.833 18.9818 222.938 19.0078C223.016 19.3724 223.107 19.6198 223.211 19.75C223.315 19.8542 223.419 20.0755 223.523 20.4141C223.393 20.6745 223.289 20.9479 223.211 21.2344C223.159 21.4948 223.003 21.6901 222.742 21.8203C222.716 22.0026 222.768 22.1068 222.898 22.1328C223.029 22.1328 223.107 22.1979 223.133 22.3281C223.159 22.5625 223.12 22.7318 223.016 22.8359C223.641 23.8516 224.201 24.9323 224.695 26.0781C225.19 27.1979 225.75 28.2656 226.375 29.2812ZM221.492 32.9922C221.596 32.7057 221.727 32.4714 221.883 32.2891C222.065 32.1068 222.169 31.8333 222.195 31.4688C222.065 31.2604 221.987 31.1042 221.961 31C221.935 30.8698 221.922 30.6745 221.922 30.4141C221.349 29.6068 220.854 28.7474 220.438 27.8359C220.021 26.8984 219.552 26.026 219.031 25.2188C218.979 25.3229 218.888 25.4271 218.758 25.5312C218.628 25.6354 218.484 25.6094 218.328 25.4531C218.276 25.6615 218.185 25.8177 218.055 25.9219C217.924 26 217.781 26.0391 217.625 26.0391C217.469 26.013 217.299 25.974 217.117 25.9219C216.961 25.8438 216.818 25.7526 216.688 25.6484C215.932 26.2474 215.177 26.8333 214.422 27.4062C213.667 27.9792 212.99 28.6432 212.391 29.3984C212.286 29.4505 212.221 29.4766 212.195 29.4766C212.169 29.4505 212.091 29.4635 211.961 29.5156C211.753 30.0104 211.492 30.4661 211.18 30.8828C210.893 31.2734 210.607 31.6771 210.32 32.0938C210.034 32.5104 209.786 32.9531 209.578 33.4219C209.37 33.8906 209.253 34.4375 209.227 35.0625C209.669 35.4271 210.19 35.6484 210.789 35.7266C211.388 35.8047 212 35.8177 212.625 35.7656C213.276 35.7135 213.901 35.6354 214.5 35.5312C215.125 35.401 215.698 35.3359 216.219 35.3359C217.312 35.0755 218.25 34.737 219.031 34.3203C219.812 33.8776 220.633 33.4349 221.492 32.9922ZM248.992 22.2109C248.341 22.2109 247.638 22.263 246.883 22.3672C246.128 22.4453 245.385 22.5365 244.656 22.6406C244.135 22.7188 243.628 22.7839 243.133 22.8359C242.664 22.888 242.234 22.9271 241.844 22.9531C241.661 23.526 241.479 24.0339 241.297 24.4766C241.115 24.9193 240.919 25.349 240.711 25.7656C240.503 26.2083 240.307 26.6641 240.125 27.1328C239.969 27.5755 239.812 28.0573 239.656 28.5781C239.396 28.9948 239.174 29.3854 238.992 29.75C238.836 30.0885 238.706 30.4792 238.602 30.9219C238.289 31.3125 238.055 31.7292 237.898 32.1719C237.742 32.5885 237.625 32.9531 237.547 33.2656L237.391 33.7344C237.234 33.8906 237.143 34.0208 237.117 34.125C237.091 34.2031 237.026 34.2812 236.922 34.3594C236.896 34.6458 236.805 34.9323 236.648 35.2188C236.596 35.349 236.557 35.4792 236.531 35.6094C236.505 35.7135 236.492 35.7917 236.492 35.8438C236.492 36.1042 236.427 36.2734 236.297 36.3516C236.323 36.4818 236.323 36.625 236.297 36.7812C236.271 36.9115 236.245 37.0417 236.219 37.1719C236.141 37.4844 236.115 37.7318 236.141 37.9141C236.219 38.0182 236.284 38.1094 236.336 38.1875C236.414 38.2656 236.466 38.3698 236.492 38.5C236.648 38.6042 236.766 38.6693 236.844 38.6953C236.948 38.7734 237.104 38.8646 237.312 38.9688L237.664 39.3594C237.794 40.1146 237.677 40.7135 237.312 41.1562C236.922 41.651 236.258 41.8984 235.32 41.8984H234.852C234.721 41.7682 234.643 41.6641 234.617 41.5859C234.409 41.5078 234.24 41.4427 234.109 41.3906C233.979 41.3385 233.862 41.2344 233.758 41.0781C233.419 40.9219 233.146 40.7917 232.938 40.6875L232.586 40.4922C232.586 40.2057 232.586 40.0495 232.586 40.0234C232.404 39.7891 232.26 39.5286 232.156 39.2422C232.078 38.9557 232.013 38.6693 231.961 38.3828C231.909 38.1484 231.844 37.9271 231.766 37.7188C231.714 37.5104 231.635 37.3281 231.531 37.1719C231.479 35.6615 231.622 34.3854 231.961 33.3438C232.299 32.3021 232.651 31.2995 233.016 30.3359C233.224 29.8151 233.432 29.2943 233.641 28.7734C233.849 28.2266 234.031 27.6667 234.188 27.0938L234.539 26.7031C234.721 26.2865 234.865 25.9479 234.969 25.6875C235.099 25.401 235.229 25.1146 235.359 24.8281C235.438 24.6458 235.503 24.4766 235.555 24.3203C235.633 24.138 235.698 23.9818 235.75 23.8516C235.594 23.8516 235.451 23.8646 235.32 23.8906C235.19 23.8906 235.06 23.9036 234.93 23.9297C234.773 23.9557 234.63 23.9818 234.5 24.0078C234.37 24.0078 234.24 24.0078 234.109 24.0078C233.927 24.0078 233.797 23.9948 233.719 23.9688C233.432 24.099 233.12 24.1641 232.781 24.1641H232.391C232.312 24.1641 232.234 24.1641 232.156 24.1641C232.104 24.138 232.052 24.125 232 24.125C231.74 24.125 231.531 24.1641 231.375 24.2422C231.062 24.2422 230.763 24.2422 230.477 24.2422H230.086C230.034 24.2422 229.969 24.2552 229.891 24.2812C229.812 24.2812 229.747 24.2812 229.695 24.2812C229.513 24.2812 229.318 24.2682 229.109 24.2422C228.901 24.1901 228.68 24.099 228.445 23.9688C228.133 23.5521 227.924 23.3307 227.82 23.3047L227.469 22.8359C227.443 22.6797 227.404 22.5365 227.352 22.4062C227.299 22.25 227.247 22.0807 227.195 21.8984C227.091 21.638 226.987 21.3646 226.883 21.0781C226.805 20.7656 226.766 20.401 226.766 19.9844C226.792 19.776 226.844 19.6198 226.922 19.5156C227 19.4115 227.065 19.3203 227.117 19.2422L227.234 18.6562L227.742 18.6953H228.836C229.669 18.6953 230.516 18.6693 231.375 18.6172C232.234 18.5391 233.12 18.4609 234.031 18.3828C234.552 18.3307 235.073 18.2786 235.594 18.2266C236.141 18.1745 236.701 18.1224 237.273 18.0703C237.378 17.8359 237.482 17.6146 237.586 17.4062L237.977 17.2109C238.445 17.1849 238.771 17.25 238.953 17.4062C239.161 17.5365 239.331 17.6667 239.461 17.7969C240.034 17.7448 240.607 17.6927 241.18 17.6406C241.779 17.5625 242.378 17.4714 242.977 17.3672C243.862 17.237 244.747 17.1198 245.633 17.0156C246.544 16.9115 247.417 16.8594 248.25 16.8594C248.615 16.8594 248.966 16.8724 249.305 16.8984C249.643 16.9245 249.956 16.9635 250.242 17.0156L250.633 17.2891C250.711 17.4453 250.815 17.5885 250.945 17.7188C251.102 17.849 251.258 17.9792 251.414 18.1094C251.727 18.3958 252.039 18.7344 252.352 19.125C252.664 19.5156 252.781 20.0885 252.703 20.8438C252.495 21.1562 252.339 21.3385 252.234 21.3906L251.883 21.8594L251.492 21.8203C251.336 21.8203 251.193 21.8464 251.062 21.8984C250.932 21.9245 250.802 21.9635 250.672 22.0156C250.568 22.0677 250.464 22.1198 250.359 22.1719C250.255 22.1979 250.138 22.224 250.008 22.25C249.773 22.25 249.578 22.25 249.422 22.25C249.292 22.224 249.148 22.2109 248.992 22.2109ZM267.742 19.0078C267.768 19.1901 267.768 19.3333 267.742 19.4375C267.742 19.5156 267.729 19.5938 267.703 19.6719C267.703 19.75 267.703 19.8411 267.703 19.9453C267.703 20.0234 267.729 20.1536 267.781 20.3359C267.234 21.2214 266.596 21.8333 265.867 22.1719C265.164 22.4844 264.396 22.7188 263.562 22.875C262.729 23.0052 261.87 23.1484 260.984 23.3047C260.125 23.4609 259.266 23.7995 258.406 24.3203C258.068 24.1901 257.755 24.1901 257.469 24.3203C257.208 24.4505 256.818 24.4896 256.297 24.4375C256.141 24.5938 255.945 24.7109 255.711 24.7891C255.477 24.8411 255.242 24.9062 255.008 24.9844C255.112 25.2188 255.151 25.4661 255.125 25.7266C255.125 25.9609 255.164 26.1562 255.242 26.3125C256.154 26.3906 257.156 26.3776 258.25 26.2734C259.37 26.1693 260.464 26.1042 261.531 26.0781C261.557 26.2083 261.544 26.2995 261.492 26.3516C261.44 26.3776 261.427 26.4427 261.453 26.5469C261.635 26.6771 261.818 26.8464 262 27.0547C262.182 27.237 262.365 27.4193 262.547 27.6016C262.729 27.7839 262.911 27.9401 263.094 28.0703C263.302 28.1745 263.536 28.2135 263.797 28.1875C263.901 28.3958 263.966 28.6302 263.992 28.8906C264.044 29.125 264.018 29.3724 263.914 29.6328C263.497 29.9193 263.081 30.2188 262.664 30.5312C262.247 30.8177 261.805 31.0781 261.336 31.3125C260.893 31.5469 260.411 31.7422 259.891 31.8984C259.396 32.0286 258.836 32.0807 258.211 32.0547C258.081 32.0547 257.977 32.0547 257.898 32.0547C257.846 32.0547 257.768 32.0156 257.664 31.9375C257.456 32.0677 257.156 32.1068 256.766 32.0547C256.401 32.0026 256.115 32.0417 255.906 32.1719C255.62 32.0417 255.268 31.9896 254.852 32.0156C254.461 32.0156 254.109 31.9635 253.797 31.8594C253.38 32.4062 253.003 32.9922 252.664 33.6172C252.326 34.2422 252.026 34.9062 251.766 35.6094C252.651 35.7396 253.38 35.7917 253.953 35.7656C254.552 35.7396 255.112 35.7005 255.633 35.6484C256.154 35.5703 256.688 35.5052 257.234 35.4531C257.781 35.375 258.471 35.349 259.305 35.375C259.826 35.0885 260.438 34.9062 261.141 34.8281C261.87 34.724 262.534 34.5677 263.133 34.3594C263.341 34.4375 263.523 34.5807 263.68 34.7891C263.836 34.9714 263.979 35.1536 264.109 35.3359C264.266 35.4922 264.422 35.6354 264.578 35.7656C264.734 35.8958 264.93 35.9479 265.164 35.9219C265.268 36.026 265.333 36.1562 265.359 36.3125C265.411 36.4427 265.451 36.5729 265.477 36.7031C265.503 36.8333 265.542 36.9505 265.594 37.0547C265.672 37.1328 265.789 37.1589 265.945 37.1328C265.555 37.9922 265.099 38.6562 264.578 39.125C264.083 39.5677 263.51 39.9062 262.859 40.1406C262.208 40.375 261.479 40.5573 260.672 40.6875C259.891 40.8177 259.018 40.974 258.055 41.1562C257.82 41.2083 257.625 41.1953 257.469 41.1172C257.312 41.0651 257.13 41.0391 256.922 41.0391C256.323 41.1693 255.607 41.2865 254.773 41.3906C253.94 41.4948 253.094 41.5339 252.234 41.5078C251.375 41.4818 250.555 41.3646 249.773 41.1562C248.992 40.974 248.354 40.6354 247.859 40.1406C247.651 39.9583 247.508 39.75 247.43 39.5156C247.378 39.2552 247.208 39.0599 246.922 38.9297C246.896 38.5911 246.844 38.2135 246.766 37.7969C246.688 37.3802 246.609 36.9505 246.531 36.5078C246.453 36.0391 246.388 35.5833 246.336 35.1406C246.31 34.6979 246.336 34.2943 246.414 33.9297C246.492 33.5391 246.648 33.1875 246.883 32.875C247.143 32.5625 247.234 32.224 247.156 31.8594C247.286 31.8333 247.365 31.7682 247.391 31.6641C247.417 31.5339 247.521 31.4818 247.703 31.5078C247.859 31.0391 248.029 30.5964 248.211 30.1797C248.393 29.763 248.576 29.3594 248.758 28.9688C248.966 28.5781 249.161 28.1875 249.344 27.7969C249.552 27.3802 249.747 26.9245 249.93 26.4297C249.565 26.0911 249.292 25.7266 249.109 25.3359C248.953 24.9193 248.836 24.5156 248.758 24.125C248.68 23.7083 248.615 23.2917 248.562 22.875C248.51 22.4323 248.419 21.9896 248.289 21.5469C248.549 21.1562 248.862 20.8438 249.227 20.6094C249.617 20.349 250.034 20.1406 250.477 19.9844C250.919 19.8281 251.401 19.6979 251.922 19.5938C252.443 19.4896 252.99 19.3724 253.562 19.2422C254.604 18.9036 255.529 18.6432 256.336 18.4609C257.169 18.2786 257.977 18.1354 258.758 18.0312C259.565 17.901 260.398 17.7839 261.258 17.6797C262.117 17.5755 263.094 17.4193 264.188 17.2109C264.422 17.4453 264.643 17.5625 264.852 17.5625C264.956 17.3281 265.073 17.263 265.203 17.3672C265.359 17.4453 265.424 17.3672 265.398 17.1328C265.659 17.5755 265.984 17.9531 266.375 18.2656C266.792 18.5521 267.247 18.7995 267.742 19.0078ZM267.43 23.4219C267.612 22.875 267.898 22.4062 268.289 22.0156C268.706 21.625 269.148 21.2995 269.617 21.0391C270.112 20.7526 270.62 20.5182 271.141 20.3359C271.661 20.1536 272.156 19.9974 272.625 19.8672C273.667 19.4245 274.773 19.0078 275.945 18.6172C277.143 18.2005 278.354 17.8359 279.578 17.5234C280.828 17.2109 282.104 17.0156 283.406 16.9375C284.708 16.8333 286.076 16.9896 287.508 17.4062C287.586 17.6667 287.703 17.9141 287.859 18.1484C288.016 18.3828 288.172 18.6172 288.328 18.8516C288.51 19.0859 288.667 19.3203 288.797 19.5547C288.927 19.763 289.005 19.9844 289.031 20.2188C289.292 20.4531 289.5 20.7135 289.656 21C289.812 21.2604 289.839 21.612 289.734 22.0547C289.474 22.263 289.214 22.4583 288.953 22.6406C288.719 22.7969 288.458 22.9401 288.172 23.0703C287.208 22.8359 286.232 22.7578 285.242 22.8359C284.253 22.9141 283.367 22.9792 282.586 23.0312C282.352 22.7969 282.065 22.6797 281.727 22.6797C281.414 22.6797 281.076 22.7318 280.711 22.8359C280.372 22.9401 280.021 23.0443 279.656 23.1484C279.318 23.2526 278.992 23.2786 278.68 23.2266C278.419 23.4349 278.094 23.5781 277.703 23.6562C277.339 23.7083 276.935 23.7604 276.492 23.8125C276.466 23.9427 276.492 24.0339 276.57 24.0859C276.648 24.112 276.661 24.1901 276.609 24.3203C276.766 24.5026 276.961 24.6328 277.195 24.7109C277.456 24.7891 277.716 24.8672 277.977 24.9453C278.263 25.0234 278.51 25.1276 278.719 25.2578C278.927 25.362 279.07 25.5443 279.148 25.8047C279.539 25.8047 279.878 25.8958 280.164 26.0781C280.451 26.2604 280.685 26.4818 280.867 26.7422C281.049 27.0026 281.18 27.2891 281.258 27.6016C281.362 27.888 281.414 28.1484 281.414 28.3828C281.492 28.5911 281.583 28.6823 281.688 28.6562C281.792 28.6302 281.909 28.6823 282.039 28.8125C282.117 29.151 282.312 29.5026 282.625 29.8672C282.938 30.2057 283.185 30.5833 283.367 31C283.419 31.651 283.458 32.237 283.484 32.7578C283.51 33.2526 283.419 33.7604 283.211 34.2812C282.82 35.2448 282.273 36.1042 281.57 36.8594C280.893 37.6146 280.112 38.2917 279.227 38.8906C278.367 39.4635 277.443 39.9583 276.453 40.375C275.464 40.7917 274.5 41.1432 273.562 41.4297C273.458 41.4036 273.354 41.4036 273.25 41.4297C273.146 41.4557 273.12 41.3906 273.172 41.2344C272.964 41.4167 272.729 41.5339 272.469 41.5859C272.234 41.638 271.974 41.651 271.688 41.625C271.401 41.625 271.102 41.612 270.789 41.5859C270.503 41.5599 270.229 41.5729 269.969 41.625C269.786 41.4427 269.617 41.2604 269.461 41.0781C269.331 40.9219 269.227 40.7135 269.148 40.4531C269.018 40.4531 268.953 40.388 268.953 40.2578C268.979 40.1276 268.94 40.0625 268.836 40.0625C268.992 39.8021 269.057 39.6589 269.031 39.6328C269.031 39.5807 268.992 39.5417 268.914 39.5156C268.862 39.4896 268.81 39.4635 268.758 39.4375C268.706 39.3854 268.693 39.3203 268.719 39.2422C268.823 39.0339 268.862 38.7995 268.836 38.5391C268.81 38.2526 268.784 37.9661 268.758 37.6797C268.732 37.3932 268.745 37.1198 268.797 36.8594C268.875 36.599 269.07 36.3906 269.383 36.2344C270.268 36.3385 271.102 36.3125 271.883 36.1562C272.69 35.974 273.445 35.7266 274.148 35.4141C274.852 35.1016 275.516 34.763 276.141 34.3984C276.792 34.0339 277.43 33.7083 278.055 33.4219C278.133 33.1875 278.237 32.9922 278.367 32.8359C278.523 32.6797 278.68 32.5365 278.836 32.4062C278.992 32.276 279.135 32.1328 279.266 31.9766C279.396 31.8203 279.487 31.625 279.539 31.3906C279.565 31.2083 279.513 31.1042 279.383 31.0781C279.279 31.026 279.227 30.9219 279.227 30.7656L278.797 30.6484C278.302 30.362 277.742 30.1276 277.117 29.9453C276.492 29.737 275.958 29.5156 275.516 29.2812C275.229 29.4375 274.956 29.4766 274.695 29.3984C274.461 29.3203 274.148 29.2422 273.758 29.1641C272.872 29.112 272.013 29.0208 271.18 28.8906C270.372 28.7604 269.591 28.526 268.836 28.1875C268.784 28.0573 268.719 27.9401 268.641 27.8359C268.562 27.7318 268.419 27.7057 268.211 27.7578C268.055 27.5495 267.898 27.3542 267.742 27.1719C267.586 26.9635 267.443 26.7422 267.312 26.5078C267.365 26.1953 267.404 25.9349 267.43 25.7266C267.456 25.4922 267.378 25.2708 267.195 25.0625C267.299 24.724 267.378 24.4505 267.43 24.2422C267.482 24.0339 267.482 23.7604 267.43 23.4219Z" fill="white"/>
<g clip-path="url(#clip0_8_38)">
<path d="M32.6655 5.62378C32.3485 6.15922 32.0657 6.72386 31.8288 7.31983L31.8287 7.32001L30.0007 11.9252L29.7516 12.5526L30.4243 12.608L35.3623 13.0145C35.3623 13.0145 35.3623 13.0145 35.3623 13.0145C37.487 13.1896 39.5545 12.8061 41.4085 11.9815C44.7806 15.9543 46.818 21.0942 46.818 26.7131C46.818 39.2986 36.6157 49.5009 24.0302 49.5009C11.4446 49.5009 1.24231 39.2986 1.24231 26.7131C1.24231 14.1275 11.4446 3.92523 24.0302 3.92523C27.0882 3.92523 30.002 4.53153 32.6655 5.62378Z" fill="#ED8F20" stroke="#F2F2F2"/>
<path d="M37.3935 19.8878C38.4653 19.8878 39.3342 19.019 39.3342 17.9472C39.3342 16.8754 38.4653 16.0065 37.3935 16.0065C36.3217 16.0065 35.4529 16.8754 35.4529 17.9472C35.4529 19.019 36.3217 19.8878 37.3935 19.8878Z" fill="#EF771D"/>
<path d="M42.5556 30.7118C43.6274 30.7118 44.4963 29.843 44.4963 28.7712C44.4963 27.6994 43.6274 26.8305 42.5556 26.8305C41.4839 26.8305 40.615 27.6994 40.615 28.7712C40.615 29.843 41.4839 30.7118 42.5556 30.7118Z" fill="#EF771D"/>
<path d="M42.2452 24.7395C43.317 24.7395 44.1858 23.8706 44.1858 22.7988C44.1858 21.727 43.317 20.8582 42.2452 20.8582C41.1734 20.8582 40.3045 21.727 40.3045 22.7988C40.3045 23.8706 41.1734 24.7395 42.2452 24.7395Z" fill="#EF771D"/>
<path d="M36.3805 28.6528C37.4523 28.6528 38.3211 27.7839 38.3211 26.7121C38.3211 25.6403 37.4523 24.7715 36.3805 24.7715C35.3087 24.7715 34.4398 25.6403 34.4398 26.7121C34.4398 27.7839 35.3087 28.6528 36.3805 28.6528Z" fill="#EF771D"/>
<path d="M37.3935 35.4131C38.4653 35.4131 39.3342 34.5442 39.3342 33.4724C39.3342 32.4006 38.4653 31.5318 37.3935 31.5318C36.3217 31.5318 35.4529 32.4006 35.4529 33.4724C35.4529 34.5442 36.3217 35.4131 37.3935 35.4131Z" fill="#EF771D"/>
<path d="M19.9276 12.1252C20.9994 12.1252 21.8682 11.2563 21.8682 10.1846C21.8682 9.11276 20.9994 8.2439 19.9276 8.2439C18.8558 8.2439 17.9869 9.11276 17.9869 10.1846C17.9869 11.2563 18.8558 12.1252 19.9276 12.1252Z" fill="#EF771D"/>
<path d="M13.1354 15.0362C14.2072 15.0362 15.076 14.1674 15.076 13.0956C15.076 12.0238 14.2072 11.1549 13.1354 11.1549C12.0636 11.1549 11.1947 12.0238 11.1947 13.0956C11.1947 14.1674 12.0636 15.0362 13.1354 15.0362Z" fill="#EF771D"/>
<path d="M26.9412 11.1869C26.9412 11.1869 31.0651 11.8661 32.1809 14.6801L26.9412 11.1869Z" fill="#ED8F20"/>
<path d="M32.1809 15.6514C31.7957 15.6514 31.4309 15.4195 31.2785 15.0381C30.381 12.7763 26.816 12.1504 26.7811 12.1446C26.2532 12.0553 25.8961 11.5566 25.9844 11.0278C26.0717 10.5009 26.5695 10.1428 27.0974 10.2302C27.2885 10.2612 31.7782 11.0365 33.0824 14.323C33.2793 14.8208 33.0358 15.3855 32.538 15.5825C32.4216 15.6291 32.3003 15.6514 32.1809 15.6514Z" fill="#9B6026"/>
<path d="M27.5233 14.0979C28.5295 12.9917 29.7987 12.133 31.1979 11.6071L27.5233 14.0979Z" fill="#ED8F20"/>
<path d="M27.5224 15.0682C27.2895 15.0682 27.0556 14.9847 26.8693 14.8159C26.4735 14.4549 26.4443 13.8417 26.8053 13.4448C27.9134 12.2271 29.3136 11.2781 30.8574 10.6978C31.3591 10.5115 31.918 10.7629 32.1072 11.2645C32.2944 11.7662 32.0412 12.3261 31.5395 12.5143C30.283 12.9859 29.1419 13.7592 28.2404 14.7499C28.0483 14.9615 27.7863 15.0682 27.5224 15.0682Z" fill="#9B6026"/>
<path d="M49.2587 0.446356L44.3207 0.0397887C39.1052 -0.389096 34.2235 2.64124 32.2935 7.50452L30.4654 12.1097L35.4034 12.5163C40.6179 12.9451 45.5006 9.91481 47.4306 5.05153L49.2587 0.446356Z" fill="#659C35"/>
<path d="M31.0097 10.7396L30.4654 12.1106L31.1621 12.1679C37.2344 6.23823 43.8336 4.29175 44.5555 4.24614L44.5895 3.70373L44.9902 4.10448L45.1435 3.52907L44.7127 3.11668C44.1325 2.9886 37.3547 4.86036 31.0097 10.7396Z" fill="#88C057"/>
</g>
<defs>
<clipPath id="clip0_8_38">
<rect width="50" height="50" fill="white"/>
</clipPath>
</defs>
</svg>
