<svg width="50" height="50" viewBox="0 0 50 50" fill="none" xmlns="http://www.w3.org/2000/svg">
<g clip-path="url(#clip0_8_3)">
<path d="M32.6655 5.62378C32.3485 6.15922 32.0657 6.72386 31.8288 7.31983L31.8287 7.32001L30.0007 11.9252L29.7516 12.5526L30.4243 12.608L35.3623 13.0145C35.3623 13.0145 35.3623 13.0145 35.3623 13.0145C37.487 13.1896 39.5545 12.8061 41.4085 11.9815C44.7806 15.9543 46.818 21.0942 46.818 26.7131C46.818 39.2986 36.6157 49.5009 24.0302 49.5009C11.4446 49.5009 1.24231 39.2986 1.24231 26.7131C1.24231 14.1275 11.4446 3.92523 24.0302 3.92523C27.0882 3.92523 30.002 4.53153 32.6655 5.62378Z" fill="#ED8F20" stroke="#F2F2F2"/>
<path d="M37.3935 19.8878C38.4653 19.8878 39.3342 19.019 39.3342 17.9472C39.3342 16.8754 38.4653 16.0065 37.3935 16.0065C36.3217 16.0065 35.4529 16.8754 35.4529 17.9472C35.4529 19.019 36.3217 19.8878 37.3935 19.8878Z" fill="#EF771D"/>
<path d="M42.5556 30.7118C43.6274 30.7118 44.4963 29.843 44.4963 28.7712C44.4963 27.6994 43.6274 26.8305 42.5556 26.8305C41.4839 26.8305 40.615 27.6994 40.615 28.7712C40.615 29.843 41.4839 30.7118 42.5556 30.7118Z" fill="#EF771D"/>
<path d="M42.2452 24.7395C43.317 24.7395 44.1858 23.8706 44.1858 22.7988C44.1858 21.727 43.317 20.8582 42.2452 20.8582C41.1734 20.8582 40.3045 21.727 40.3045 22.7988C40.3045 23.8706 41.1734 24.7395 42.2452 24.7395Z" fill="#EF771D"/>
<path d="M36.3805 28.6528C37.4523 28.6528 38.3211 27.7839 38.3211 26.7121C38.3211 25.6403 37.4523 24.7715 36.3805 24.7715C35.3087 24.7715 34.4398 25.6403 34.4398 26.7121C34.4398 27.7839 35.3087 28.6528 36.3805 28.6528Z" fill="#EF771D"/>
<path d="M37.3935 35.4131C38.4653 35.4131 39.3342 34.5442 39.3342 33.4724C39.3342 32.4006 38.4653 31.5318 37.3935 31.5318C36.3217 31.5318 35.4529 32.4006 35.4529 33.4724C35.4529 34.5442 36.3217 35.4131 37.3935 35.4131Z" fill="#EF771D"/>
<path d="M19.9276 12.1252C20.9994 12.1252 21.8682 11.2563 21.8682 10.1846C21.8682 9.11276 20.9994 8.2439 19.9276 8.2439C18.8558 8.2439 17.9869 9.11276 17.9869 10.1846C17.9869 11.2563 18.8558 12.1252 19.9276 12.1252Z" fill="#EF771D"/>
<path d="M13.1354 15.0362C14.2072 15.0362 15.076 14.1674 15.076 13.0956C15.076 12.0238 14.2072 11.1549 13.1354 11.1549C12.0636 11.1549 11.1947 12.0238 11.1947 13.0956C11.1947 14.1674 12.0636 15.0362 13.1354 15.0362Z" fill="#EF771D"/>
<path d="M26.9412 11.1869C26.9412 11.1869 31.0651 11.8661 32.1809 14.6801Z" fill="#ED8F20"/>
<path d="M32.1809 15.6514C31.7957 15.6514 31.4309 15.4195 31.2785 15.0381C30.381 12.7763 26.816 12.1504 26.7811 12.1446C26.2532 12.0553 25.8961 11.5566 25.9844 11.0278C26.0717 10.5009 26.5695 10.1428 27.0974 10.2302C27.2885 10.2612 31.7782 11.0365 33.0824 14.323C33.2793 14.8208 33.0358 15.3855 32.538 15.5825C32.4216 15.6291 32.3003 15.6514 32.1809 15.6514Z" fill="#9B6026"/>
<path d="M27.5233 14.0979C28.5295 12.9917 29.7987 12.133 31.1979 11.6071Z" fill="#ED8F20"/>
<path d="M27.5224 15.0682C27.2895 15.0682 27.0556 14.9847 26.8693 14.8159C26.4735 14.4549 26.4443 13.8417 26.8053 13.4448C27.9134 12.2271 29.3136 11.2781 30.8574 10.6978C31.3591 10.5115 31.918 10.7629 32.1072 11.2645C32.2944 11.7662 32.0412 12.3261 31.5395 12.5143C30.283 12.9859 29.1419 13.7592 28.2404 14.7499C28.0483 14.9615 27.7863 15.0682 27.5224 15.0682Z" fill="#9B6026"/>
<path d="M49.2587 0.446356L44.3207 0.0397887C39.1052 -0.389096 34.2235 2.64124 32.2935 7.50452L30.4654 12.1097L35.4034 12.5163C40.6179 12.9451 45.5006 9.91481 47.4306 5.05153L49.2587 0.446356Z" fill="#659C35"/>
<path d="M31.0097 10.7396L30.4654 12.1106L31.1621 12.1679C37.2344 6.23823 43.8336 4.29175 44.5555 4.24614L44.5895 3.70373L44.9902 4.10448L45.1435 3.52907L44.7127 3.11668C44.1325 2.9886 37.3547 4.86036 31.0097 10.7396Z" fill="#88C057"/>
</g>
<defs>
<clipPath id="clip0_8_3">
<rect width="50" height="50" fill="white"/>
</clipPath>
</defs>
</svg>
